<?xml version="1.0" standalone="no"?><!DOCTYPE svg PUBLIC "-//W3C//DTD SVG 1.1//EN" "http://www.w3.org/Graphics/SVG/1.1/DTD/svg11.dtd"><svg t="1684118734420" class="icon" viewBox="0 0 1024 1024" version="1.1" xmlns="http://www.w3.org/2000/svg" p-id="2570" xmlns:xlink="http://www.w3.org/1999/xlink" width="200" height="200"><path d="M85.333333 204.16A118.826667 118.826667 0 0 1 204.16 85.333333h562.090667a118.826667 118.826667 0 0 1 118.826666 118.186667l1.706667 334.72a248.448 248.448 0 0 1-348.544 348.544l-334.677333-1.706667A118.826667 118.826667 0 0 1 85.333333 766.293333V204.16z m394.026667 617.472a248.448 248.448 0 0 1 342.272-342.272l-1.365333-275.456a54.016 54.016 0 0 0-54.016-53.76H204.16c-29.866667 0-54.016 24.192-54.016 54.016v562.090667c0 29.738667 24.021333 53.888 53.76 54.016l275.456 1.365333zM214.954667 290.56c0-17.92 14.506667-32.426667 32.426666-32.426667h475.264a32.426667 32.426667 0 1 1 0 64.853334H247.338667a32.426667 32.426667 0 0 1-32.384-32.426667z m0 172.8c0-17.877333 14.506667-32.384 32.426666-32.384h129.578667a32.426667 32.426667 0 1 1 0 64.853333H247.338667a32.426667 32.426667 0 0 1-32.384-32.426666z m475.306666 43.221333a183.637333 183.637333 0 1 0 0 367.274667 183.637333 183.637333 0 0 0 0-367.274667z m-10.837333 32.426667c17.92 0 32.426667 14.506667 32.426667 32.426667v86.4h53.973333a32.426667 32.426667 0 0 1 0 64.810666h-86.4a32.426667 32.426667 0 0 1-32.426667-32.426666v-118.826667c0-17.92 14.506667-32.426667 32.426667-32.426667zM214.954667 636.16c0-17.92 14.506667-32.426667 32.426666-32.426667h129.578667a32.426667 32.426667 0 1 1 0 64.853334H247.338667a32.426667 32.426667 0 0 1-32.384-32.426667z" fill="#000000" fill-opacity=".65" p-id="2571"></path></svg>