<?xml version="1.0" standalone="no"?><!DOCTYPE svg PUBLIC "-//W3C//DTD SVG 1.1//EN" "http://www.w3.org/Graphics/SVG/1.1/DTD/svg11.dtd"><svg t="1683126593699" class="icon" viewBox="0 0 1024 1024" version="1.1" xmlns="http://www.w3.org/2000/svg" p-id="2513" xmlns:xlink="http://www.w3.org/1999/xlink" width="200" height="200"><path d="M682.664107 268.086613c33.1136 0 60.91776-28.92544 60.91776-60.91776l0-60.91776c0-32.01792-27.80416-60.91776-60.91776-60.91776-33.110187 0-60.91776 28.89984-60.91776 60.91776l0 60.91776C621.746347 239.161173 649.55392 268.086613 682.664107 268.086613zM769.23904 170.6752l-1.2416 31.916373c0 53.417813-24.415573 96.08448-85.333333 96.08448s-85.333333-42.666667-85.333333-96.08448l0-31.91552L426.665813 170.676053l0 31.91552c0.000853 52.201813-24.5504 95.963307-85.46816 95.963307s-85.197653-42.545493-85.197653-95.963307l0.191147-31.916373-128.191147-0.008533c0 0 0 24.203093 0 31.679147l0 736.31744c0 0 22.216533 0.01024 29.84192 0.01024l708.301653-0.004267c7.637333 0 29.853013-0.005973 29.853013-0.005973l0-736.320853c0-7.476907 0-31.675733 0-31.675733L769.23904 170.6752zM853.32992 896.006827 170.666667 896.006827l0-554.664107 682.663253 0L853.32992 896.006827zM341.1968 268.096853c33.09568 0 60.91776-28.92544 60.91776-60.91776l0-60.91776c0-32.01792-27.82208-60.91776-60.91776-60.91776-33.124693 0-60.91776 28.89984-60.91776 60.91776l0 60.91776C280.279893 239.171413 308.072107 268.096853 341.1968 268.096853zM283.536213 508.296533c1.4336 1.306453 3.37152 2.08896 5.481813 2.026667 2.11968-0.065707 4.004693-0.961707 5.344427-2.353493l15.722667-16.35328-0.1024-0.09984 73.931093-76.342613c1.345707-1.39776 2.1376-3.295573 2.072747-5.356373-0.067413-2.069333-0.976213-3.907413-2.409813-5.21984l-13.10464-12.639573c-1.427627-1.303893-4.20096-2.08896-6.32064-2.023253-2.107733 0.062293-3.157333 0.961707-4.50048 2.350933l-40.6272 45.934933c-8.616107 9.303893-28.51072 30.05696-32.321707 30.05696-3.73504 0-8.76288-6.181547-10.19648-7.496533l-16.622933-15.268693c-1.43616-1.311573-3.368107-2.08896-5.485227-2.023253-2.111147 0.062293-4.004693 0.961707-5.338453 2.353493l-10.492587 10.90304c-1.345707 1.391787-2.134187 3.28704-2.072747 5.3504 0.073387 2.06592 0.99072 3.907413 2.413227 5.21984L283.536213 508.296533zM497.437013 508.296533c1.4336 1.306453 3.37408 2.08896 5.481813 2.026667 2.11968-0.065707 4.004693-0.961707 5.344427-2.353493l15.725227-16.35328-0.1024-0.09984 73.928533-76.342613c1.345707-1.39776 2.1376-3.295573 2.075307-5.356373-0.067413-2.069333-0.979627-3.907413-2.409813-5.21984l-13.10464-12.639573c-1.43104-1.303893-4.204373-2.08896-6.32064-2.023253-2.107733 0.062293-3.157333 0.961707-4.50304 2.350933l-40.62464 45.934933c-8.61952 9.303893-28.51072 30.05696-32.32768 30.05696-3.731627 0-8.756907-6.181547-10.190507-7.496533l-16.625493-15.268693c-1.4336-1.311573-3.368107-2.08896-5.485227-2.023253-2.107733 0.062293-4.002133 0.961707-5.338453 2.353493l-10.489173 10.90304c-1.345707 1.391787-2.134187 3.28704-2.075307 5.3504 0.075947 2.06592 0.99072 3.907413 2.415787 5.21984L497.437013 508.296533zM703.660373 508.296533c1.427627 1.306453 3.37152 2.08896 5.482667 2.026667 2.116267-0.065707 4.00128-0.961707 5.341867-2.353493l15.725227-16.35328-0.105813-0.09984 73.928533-76.342613c1.348267-1.39776 2.14016-3.295573 2.07872-5.356373-0.067413-2.069333-0.978773-3.907413-2.407253-5.21984l-13.10464-12.639573c-1.43616-1.303893-4.209493-2.08896-6.326613-2.023253-2.107733 0.062293-3.157333 0.961707-4.50048 2.350933l-40.62464 45.934933c-8.62208 9.303893-28.51328 30.05696-32.324267 30.05696-3.73504 0-8.76032-6.181547-10.193067-7.496533l-16.628907-15.268693c-1.43104-1.311573-3.365547-2.08896-5.485227-2.023253-2.10176 0.062293-3.99872 0.961707-5.338453 2.353493l-10.489173 10.90304c-1.342293 1.391787-2.134187 3.28704-2.069333 5.3504 0.069973 2.06592 0.99072 3.907413 2.412373 5.21984L703.660373 508.296533zM281.385813 660.590933c1.4336 1.306453 3.37152 2.08896 5.481813 2.026667 2.11968-0.065707 4.004693-0.961707 5.344427-2.353493l15.722667-16.35328-0.1024-0.09984 73.931093-76.34176c1.345707-1.39776 2.1376-3.295573 2.072747-5.356373-0.067413-2.069333-0.976213-3.907413-2.409813-5.21984l-13.10464-12.639573c-1.427627-1.30304-4.20096-2.08896-6.32064-2.023253-2.107733 0.062293-3.157333 0.961707-4.50048 2.350933l-40.6272 45.934933c-8.616107 9.303893-28.51072 30.05696-32.321707 30.05696-3.73504 0-8.76288-6.181547-10.19648-7.496533l-16.622933-15.268693c-1.43616-1.312427-3.36896-2.08896-5.485227-2.023253-2.111147 0.062293-4.004693 0.961707-5.338453 2.353493l-10.492587 10.90304c-1.345707 1.391787-2.134187 3.28704-2.072747 5.3504 0.073387 2.06592 0.99072 3.907413 2.412373 5.21984L281.385813 660.590933zM281.385813 813.605547c1.4336 1.306453 3.37152 2.08896 5.481813 2.026667 2.11968-0.065707 4.004693-0.961707 5.344427-2.353493l15.722667-16.35328-0.1024-0.09984 73.931093-76.342613c1.345707-1.39776 2.1376-3.295573 2.072747-5.356373-0.067413-2.069333-0.976213-3.907413-2.409813-5.21984l-13.10464-12.639573c-1.427627-1.303893-4.20096-2.08896-6.32064-2.023253-2.107733 0.062293-3.157333 0.961707-4.50048 2.350933l-40.6272 45.934933c-8.616107 9.303893-28.51072 30.05696-32.321707 30.05696-3.73504 0-8.76288-6.181547-10.19648-7.496533l-16.622933-15.268693c-1.43616-1.311573-3.36896-2.08896-5.485227-2.023253-2.111147 0.062293-4.004693 0.961707-5.338453 2.353493l-10.492587 10.90304c-1.345707 1.391787-2.134187 3.28704-2.072747 5.3504 0.073387 2.06592 0.99072 3.907413 2.412373 5.21984L281.385813 813.605547zM495.287467 660.590933c1.4336 1.306453 3.37408 2.08896 5.481813 2.026667 2.11968-0.065707 4.004693-0.961707 5.344427-2.353493l15.725227-16.35328-0.1024-0.09984 73.928533-76.34176c1.345707-1.39776 2.1376-3.295573 2.075307-5.356373-0.067413-2.069333-0.978773-3.907413-2.409813-5.21984l-13.10464-12.639573c-1.43104-1.30304-4.204373-2.08896-6.32064-2.023253-2.107733 0.062293-3.157333 0.961707-4.50304 2.350933l-40.62464 45.934933c-8.61952 9.303893-28.51072 30.05696-32.32768 30.05696-3.731627 0-8.756907-6.181547-10.190507-7.496533l-16.625493-15.268693c-1.4336-1.312427-3.368107-2.08896-5.485227-2.023253-2.107733 0.062293-4.002133 0.961707-5.338453 2.353493l-10.489173 10.90304c-1.345707 1.391787-2.134187 3.28704-2.075307 5.3504 0.075947 2.06592 0.99072 3.907413 2.415787 5.21984L495.287467 660.590933zM701.509973 660.590933c1.427627 1.306453 3.37152 2.08896 5.481813 2.026667 2.11712-0.065707 4.002133-0.961707 5.341867-2.353493l15.725227-16.35328-0.105813-0.09984 73.928533-76.34176c1.348267-1.39776 2.14016-3.295573 2.07872-5.356373-0.067413-2.069333-0.978773-3.907413-2.407253-5.21984l-13.10464-12.639573c-1.43616-1.30304-4.209493-2.08896-6.326613-2.023253-2.107733 0.062293-3.157333 0.961707-4.50048 2.350933l-40.62464 45.934933c-8.62208 9.303893-28.51328 30.05696-32.324267 30.05696-3.73504 0-8.759467-6.181547-10.193067-7.496533l-16.628907-15.268693c-1.43104-1.312427-3.365547-2.08896-5.485227-2.023253-2.10176 0.062293-3.99872 0.961707-5.338453 2.353493l-10.489173 10.90304c-1.342293 1.391787-2.134187 3.28704-2.069333 5.3504 0.069973 2.06592 0.99072 3.907413 2.412373 5.21984L701.509973 660.590933zM712.869547 725.390507c-16.820053 0-30.20544-0.059733-30.20544-0.059733l0 85.333333c0 0 13.385387-0.041813 30.20544-0.041813l24.31488 0c16.822613 0 30.81216 0.041813 30.81216 0.041813l0-85.333333c0 0-13.989547 0.059733-30.81216 0.059733L712.869547 725.390507zM469.331627 725.330773c0 0 0 13.697707 0 30.51776l0 54.81472c0 0 13.637973-0.041813 30.458027-0.041813l24.31488 0c16.822613 0 30.559573 0.041813 30.559573 0.041813l-0.101547-54.81472c0-16.820053 0.101547-30.51776 0.101547-30.51776L469.331627 725.330773z"  p-id="2514"></path></svg>