<svg xmlns="http://www.w3.org/2000/svg" version="1.1" width="24" height="24" viewBox="0 0 24 24"><defs><clipPath id="master_svg0_24_0283/24_741"><rect x="0" y="0" width="24" height="24" rx="0"/></clipPath></defs><g style="mix-blend-mode:passthrough" clip-path="url(#master_svg0_24_0283/24_741)"><g><path d="M20.9931,13.2849C22.961,11.8133,24,9.92076,24,7.7996C24,3.49885,19.5873,0,14.1641,0C8.74009,0,4.32732,3.49885,4.32732,7.7996C4.32732,8.99721,4.66991,10.1325,5.28122,11.1474C2.2171,11.9155,0,14.1537,0,16.7931C0,18.5202,0.89816,19.9253,2.40879,21.0084C2.73721,21.7533,2.25195,23.3488,1.62118,24Q3.47438,23.6936,4.55685,22.3125C5.54881,22.6766,6.44948,22.721,7.61657,22.721C11.8258,22.721,15.2348,20.0676,15.2348,16.7931C15.2348,16.3789,15.18,15.9748,15.0763,15.5846C15.941,15.558,16.7762,15.4723,17.651,15.2072C19.1046,16.7528,21.2008,17.1153,21.2954,17.1308L23.2183,17.4484L21.8627,16.0497C21.2837,15.452,20.8364,13.9754,20.9931,13.2849ZM5.17427,17.8573C4.64645,17.8573,4.21831,17.4296,4.21831,16.9022C4.21831,16.3745,4.64645,15.9468,5.17427,15.9468C5.70207,15.9468,6.1302,16.3745,6.1302,16.9022C6.13023,17.4296,5.70207,17.8573,5.17427,17.8573ZM7.70619,17.8573C7.17839,17.8573,6.75023,17.4296,6.75023,16.9022C6.75023,16.3745,7.17837,15.9468,7.70619,15.9468C8.23401,15.9468,8.66215,16.3745,8.66215,16.9022C8.66215,17.4296,8.23401,17.8573,7.70619,17.8573ZM10.2381,17.8573C9.71019,17.8573,9.28218,17.4296,9.28218,16.9022C9.28218,16.3745,9.71031,15.9468,10.2381,15.9468C10.7667,15.9468,11.1949,16.3745,11.1949,16.9022C11.1949,17.4296,10.7667,17.8573,10.2381,17.8573ZM20.0069,15.3457C19.4447,15.0699,18.8307,14.6597,18.3631,14.0642L18.0749,13.6959L17.6352,13.857C16.6796,14.2073,15.8092,14.2958,14.5352,14.3084C13.328,12.275,10.6851,10.8628,7.61659,10.8628C7.29068,10.8628,6.96954,10.8788,6.65437,10.9098C5.99134,9.98511,5.61404,8.92533,5.61404,7.79955C5.61404,4.20781,9.44963,1.28565,14.1639,1.28565C18.8775,1.28565,22.713,4.20781,22.713,7.79955C22.713,9.57371,21.8251,11.1089,20.0739,12.3637L19.9306,12.4662L19.8603,12.6269C19.5478,13.3368,19.6652,14.4011,20.0069,15.3457ZM10.6612,6.69636C9.94573,6.69636,9.3659,7.27603,9.3659,7.99135C9.3659,8.70609,9.94559,9.28582,10.6612,9.28582C11.3775,9.28582,11.9573,8.70612,11.9573,7.99135C11.9573,7.27606,11.3775,6.69636,10.6612,6.69636ZM14.0928,6.69636C13.3774,6.69636,12.7975,7.27603,12.7975,7.99135C12.7975,8.70609,13.3774,9.28582,14.0928,9.28582C14.8091,9.28582,15.3889,8.70612,15.3889,7.99135C15.3889,7.27606,14.8091,6.69636,14.0928,6.69636ZM17.5246,6.69636C16.809,6.69636,16.2292,7.27603,16.2292,7.99135C16.2292,8.70609,16.809,9.28582,17.5246,9.28582C18.2409,9.28582,18.8206,8.70612,18.8206,7.99135C18.8206,7.27606,18.2409,6.69636,17.5246,6.69636Z" fill-opacity="1"/></g></g></svg>