<?xml version="1.0" standalone="no"?><!DOCTYPE svg PUBLIC "-//W3C//DTD SVG 1.1//EN" "http://www.w3.org/Graphics/SVG/1.1/DTD/svg11.dtd"><svg t="1684406169989" class="icon" viewBox="0 0 1024 1024" version="1.1" xmlns="http://www.w3.org/2000/svg" p-id="3427" xmlns:xlink="http://www.w3.org/1999/xlink" width="48" height="48"><path d="M890.326108 88.982621H514.599492L138.772896 0.599883c-0.09998 0-0.199961 0-0.299941-0.099981-0.199961 0-0.399922-0.09998-0.699864-0.09998-0.09998 0-0.299941-0.09998-0.399922-0.099981-0.299941 0-0.599883-0.09998-0.899824-0.09998h-0.299941c-0.399922 0-0.699863-0.09998-1.099786-0.099981H133.673892c-1.599688 0-3.299356 0.199961-4.799063 0.499903h-0.09998c-0.299941 0.09998-0.699863 0.199961-0.999805 0.299941-0.09998 0-0.199961 0.09998-0.299941 0.099981-0.299941 0.09998-0.499902 0.199961-0.799844 0.199961-0.199961 0.09998-0.299941 0.09998-0.499903 0.199961s-0.299941 0.09998-0.499902 0.199961-0.499902 0.199961-0.699863 0.299941h-0.099981c-1.799649 0.799844-3.499317 1.799649-5.099004 2.999414-3.199375 2.599492-5.698887 5.898848-7.098613 9.698106v0.09998c-0.09998 0.199961-0.199961 0.499902-0.199961 0.699864-0.09998 0.199961-0.09998 0.299941-0.099981 0.499902-0.09998 0.199961-0.09998 0.399922-0.199961 0.599883-0.09998 0.199961-0.09998 0.399922-0.199961 0.599883 0 0.199961-0.09998 0.299941-0.09998 0.499902-0.09998 0.299941-0.09998 0.499902-0.199961 0.799844 0 0.09998 0 0.199961-0.099981 0.399922 0 0.299941-0.09998 0.599883-0.09998 0.899824v0.299942c0 0.399922-0.09998 0.699863-0.099981 1.099785v980.608475c0 12.197618 9.998047 22.295645 22.295646 22.295645s22.295645-9.998047 22.295645-22.295645V517.698887L507.000976 600.282757c1.699668 0.399922 3.399336 0.599883 5.099004 0.599883h378.326109c12.297598 0 22.295645-9.998047 22.295645-22.295645V111.278266C912.621754 98.980668 902.623706 88.982621 890.326108 88.982621z m-22.195665 467.408709H514.599492l-358.729935-84.383519V50.390158L506.900996 132.974029c1.699668 0.399922 3.399336 0.599883 5.099004 0.599882h356.130443v422.817419z" p-id="3428"></path></svg>