<svg xmlns="http://www.w3.org/2000/svg" version="1.1" width="24" height="24" viewBox="0 0 24 24"><g style="mix-blend-mode:passthrough"><g style="mix-blend-mode:passthrough"><path d="M11.2633,0.229798C11.6966,-0.0765992,12.3034,-0.0765992,12.7367,0.229798C12.7367,0.229798,23.5367,7.86616,23.5367,7.86616C23.829,8.07284,24,8.39063,24,8.72727C24,8.72727,24,20.7273,24,20.7273C24,21.5953,23.6207,22.4277,22.9456,23.0414C22.2704,23.6552,21.3548,24,20.4,24C20.4,24,3.6,24,3.6,24C2.64522,24,1.72955,23.6552,1.05442,23.0414C0.379284,22.4277,0,21.5953,0,20.7273C0,20.7273,0,8.72727,0,8.72727C0,8.39063,0.170968,8.07284,0.463271,7.86616C0.463271,7.86616,11.2633,0.229798,11.2633,0.229798C11.2633,0.229798,11.2633,0.229798,11.2633,0.229798ZM9.6,21.8182C9.6,21.8182,14.4,21.8182,14.4,21.8182C14.4,21.8182,14.4,13.0909,14.4,13.0909C14.4,13.0909,9.6,13.0909,9.6,13.0909C9.6,13.0909,9.6,21.8182,9.6,21.8182C9.6,21.8182,9.6,21.8182,9.6,21.8182ZM16.8,21.8182C16.8,21.8182,16.8,12,16.8,12C16.8,11.3975,16.2628,10.9091,15.6,10.9091C15.6,10.9091,8.4,10.9091,8.4,10.9091C7.73726,10.9091,7.2,11.3975,7.2,12C7.2,12,7.2,21.8182,7.2,21.8182C7.2,21.8182,3.6,21.8182,3.6,21.8182C3.28174,21.8182,2.97652,21.7032,2.75147,21.4987C2.52643,21.2941,2.4,21.0166,2.4,20.7273C2.4,20.7273,2.4,9.26081,2.4,9.26081C2.4,9.26081,12,2.47294,12,2.47294C12,2.47294,21.6,9.26081,21.6,9.26081C21.6,9.26081,21.6,20.7273,21.6,20.7273C21.6,21.0166,21.4735,21.2941,21.2485,21.4987C21.0235,21.7032,20.7182,21.8182,20.4,21.8182C20.4,21.8182,16.8,21.8182,16.8,21.8182C16.8,21.8182,16.8,21.8182,16.8,21.8182Z" fill-rule="evenodd" fill-opacity="1"/></g></g></svg>