<?xml version="1.0" standalone="no"?><!DOCTYPE svg PUBLIC "-//W3C//DTD SVG 1.1//EN" "http://www.w3.org/Graphics/SVG/1.1/DTD/svg11.dtd"><svg t="1684406493863" class="icon" viewBox="0 0 1024 1024" version="1.1" xmlns="http://www.w3.org/2000/svg" p-id="8814" xmlns:xlink="http://www.w3.org/1999/xlink" width="48" height="48"><path d="M467.2 1024c-25.6 0-44.8-6.4-57.6-25.6l-384-384c-32-32-32-89.6 0-121.6L512 6.4C518.4 0 531.2 0 537.6 0l377.6 83.2c12.8 0 19.2 12.8 25.6 25.6L1024 486.4c0 12.8 0 19.2-6.4 32l-486.4 486.4C512 1017.6 492.8 1024 467.2 1024zM544 64 70.4 537.6C64 550.4 64 563.2 70.4 569.6l384 384c6.4 6.4 19.2 6.4 32 0L960 480l-76.8-339.2L544 64z" p-id="8815"></path><path d="M652.8 531.2c-44.8 0-83.2-19.2-115.2-44.8-64-64-64-166.4 0-230.4 32-32 70.4-44.8 115.2-44.8 44.8 0 83.2 19.2 115.2 44.8 32 32 44.8 70.4 44.8 115.2S800 454.4 768 486.4C736 518.4 697.6 531.2 652.8 531.2zM652.8 275.2c-25.6 0-51.2 12.8-70.4 25.6-38.4 38.4-38.4 102.4 0 140.8 38.4 38.4 102.4 38.4 140.8 0 19.2-19.2 25.6-44.8 25.6-70.4 0-25.6-12.8-51.2-25.6-70.4C704 281.6 678.4 275.2 652.8 275.2z" p-id="8816"></path></svg>