<svg xmlns="http://www.w3.org/2000/svg" version="1.1" width="24" height="24" viewBox="0 0 24 24"><defs><clipPath id="master_svg0_24_0262/24_741"><rect x="0" y="0" width="24" height="24" rx="0"/></clipPath></defs><g style="mix-blend-mode:passthrough" clip-path="url(#master_svg0_24_0262/24_741)"><g style="mix-blend-mode:passthrough"><path d="M6.51034,2.237C7.94267,0.804673,9.88531,0,11.911,0C13.9366,0,15.8792,0.804673,17.3115,2.237C18.7439,3.66933,19.5485,5.61198,19.5485,7.63759C19.5485,11.2957,20.3309,13.5672,21.052,14.8891C21.414,15.5528,21.7665,15.9882,22.0113,16.2467C22.1341,16.3762,22.2304,16.4621,22.2886,16.5105C22.3176,16.5347,22.337,16.5496,22.3454,16.5558C22.3467,16.5568,22.3478,16.5575,22.3486,16.5581C22.7398,16.8268,22.9128,17.3182,22.775,17.7736C22.6357,18.2337,22.2115,18.5484,21.7307,18.5484C21.7307,18.5484,2.09117,18.5484,2.09117,18.5484C1.610365,18.5484,1.186231,18.2337,1.0469012,17.7736C0.9090507,17.3182,1.0821395,16.8268,1.473277,16.5581C1.474043,16.5575,1.475085,16.5568,1.4763950000000001,16.5558C1.484796,16.5496,1.504275,16.5347,1.533322,16.5105C1.591385,16.4621,1.6878199999999999,16.3762,1.81054,16.2467C2.05541,15.9882,2.40793,15.5528,2.76994,14.8891C3.49096,13.5672,4.27334,11.2957,4.27334,7.63759C4.27334,5.61197,5.07802,3.66933,6.51034,2.237C6.51034,2.237,6.51034,2.237,6.51034,2.237ZM1.484305,16.5507C1.484391,16.5506,1.484478,16.5504,1.484564,16.5504C1.484558,16.5504,1.484554,16.5504,1.48455,16.5504C1.48455,16.5504,1.484305,16.5507,1.484305,16.5507C1.484305,16.5507,1.484305,16.5507,1.484305,16.5507ZM4.43626,16.3663C4.43626,16.3663,19.3857,16.3663,19.3857,16.3663C19.3026,16.2302,19.2193,16.0863,19.1362,15.9341C18.2206,14.2555,17.3664,11.6171,17.3664,7.63759C17.3664,6.19073,16.791600000000003,4.80312,15.7685,3.78003C14.7454,2.75693,13.3578,2.18217,11.911,2.18217C10.46407,2.18217,9.07646,2.75693,8.05336,3.78003C7.03027,4.80312,6.45551,6.19073,6.45551,7.63759C6.45551,11.6171,5.60127,14.2555,4.68565,15.9341C4.6026299999999996,16.0863,4.51928,16.2302,4.43626,16.3663C4.43626,16.3663,4.43626,16.3663,4.43626,16.3663ZM9.47589,20.8779C9.99712,20.5756,10.66479,20.753,10.96715,21.2742C11.0631,21.4396,11.2007,21.5769,11.3664,21.6722C11.532,21.7676,11.7198,21.8179,11.911,21.8179C12.1021,21.8179,12.2899,21.7676,12.4555,21.6722C12.6211,21.5769,12.7588,21.4396,12.8547,21.2742C13.1571,20.753,13.8247,20.5756,14.3459,20.8779C14.8673,21.1802,15.0447,21.8479,14.7423,22.3692C14.4546,22.8652,14.0415,23.2769,13.5446,23.5632C13.0478,23.8494,12.4843,24,11.911,24C11.3375,24,10.77411,23.8494,10.27721,23.5632C9.7803,23.2769,9.3673,22.8652,9.07957,22.3692C8.77721,21.8479,8.954640000000001,21.1802,9.47589,20.8779C9.47589,20.8779,9.47589,20.8779,9.47589,20.8779Z" fill-rule="evenodd" fill-opacity="1"/></g></g></svg>