<?xml version="1.0" standalone="no"?><!DOCTYPE svg PUBLIC "-//W3C//DTD SVG 1.1//EN" "http://www.w3.org/Graphics/SVG/1.1/DTD/svg11.dtd"><svg t="1684349581765" class="icon" viewBox="0 0 1024 1024" version="1.1" xmlns="http://www.w3.org/2000/svg" p-id="7538" xmlns:xlink="http://www.w3.org/1999/xlink" width="64" height="64"><path d="M859.354 255.953H717.847L534.921 73.026c-0.409-0.41-0.829-0.802-1.255-1.184a30.918 30.918 0 0 0-3.474-2.694c-0.177-0.119-0.357-0.231-0.536-0.345a31.2 31.2 0 0 0-2.24-1.31c-0.03-0.016-0.063-0.03-0.093-0.046-0.462-0.241-0.93-0.469-1.4-0.685-9.147-4.192-19.913-3.702-28.678 1.478a31.073 31.073 0 0 0-6.167 4.787l-0.009 0.01-182.917 182.916H163.887c-55.781 0-101 45.219-101 101v501.341c0 55.78 45.219 101 101 101h695.468c55.78 0 101-45.22 101-101V356.953c-0.001-55.781-45.22-101-101.001-101zM513 138.79l117.163 117.163H395.837L513 138.79z m383.174 710.432c0 24.301-19.699 44-44 44H172c-24.301 0-44-19.699-44-44V363c0-24.301 19.699-44 44-44h73.105l-43.714 43.714c-12.107 12.107-12.107 31.735 0 43.842s31.736 12.107 43.843 0L332.79 319h360.419l87.557 87.557c12.106 12.106 31.735 12.106 43.842 0 12.107-12.107 12.107-31.736 0.001-43.842L780.895 319h71.279c24.301 0 44 19.699 44 44v486.222z" p-id="7539"></path><path d="M737.072 512h-449c-17.686 0-32.023 14.337-32.023 32.023 0 17.686 14.337 32.022 32.023 32.022h449c17.687 0 32.023-14.337 32.023-32.022 0.001-17.686-14.336-32.023-32.023-32.023zM737.072 703.754h-449c-17.686 0-32.023 14.337-32.023 32.023 0 17.686 14.337 32.022 32.023 32.022h449c17.687 0 32.023-14.337 32.023-32.022 0.001-17.686-14.336-32.023-32.023-32.023z" p-id="7540"></path></svg>