<svg xmlns="http://www.w3.org/2000/svg" version="1.1" width="27.428573608398438" height="32.000003814697266"
     viewBox="0 0 27.428573608398438 32.000003814697266"><g><path d="M22.8571,10.6667L25.9048,10.6667C26.7463,10.6667,27.4286,11.3489,27.4286,12.1905L27.4286,30.4762C27.4286,31.3178,26.7463,32,25.9048,32L1.52381,32C0.682233,32,0,31.3178,0,30.4762L0,12.1905C0,11.3489,0.682233,10.6667,1.52381,10.6667L4.57143,10.6667L4.57143,9.14286C4.57143,4.0934,8.66483,0,13.7143,0C18.7637,0,22.8571,4.0934,22.8571,9.14286L22.8571,10.6667ZM19.8095,10.6667L19.8095,9.14286C19.8095,5.77655,17.0806,3.04762,13.7143,3.04762C10.348,3.04762,7.61905,5.77655,7.61905,9.14286L7.61905,10.6667L19.8095,10.6667ZM12.1905,19.8095L12.1905,22.8571L15.2381,22.8571L15.2381,19.8095L12.1905,19.8095ZM6.09524,19.8095L6.09524,22.8571L9.14286,22.8571L9.14286,19.8095L6.09524,19.8095ZM18.2857,19.8095L18.2857,22.8571L21.3333,22.8571L21.3333,19.8095L18.2857,19.8095Z" fill-opacity="1"/></g></svg>