<?xml version="1.0" standalone="no"?><!DOCTYPE svg PUBLIC "-//W3C//DTD SVG 1.1//EN" "http://www.w3.org/Graphics/SVG/1.1/DTD/svg11.dtd"><svg t="1684405851913" class="icon" viewBox="0 0 1024 1024" version="1.1" xmlns="http://www.w3.org/2000/svg" p-id="2389" xmlns:xlink="http://www.w3.org/1999/xlink" width="48" height="48"><path d="M907.2 136.7h-789c-11.5 0-20.7-9.3-20.7-20.7s9.3-20.7 20.7-20.7h789.1c11.5 0 20.7 9.3 20.7 20.7s-9.3 20.7-20.8 20.7z" p-id="2390"></path><path d="M888.7 512.6c-5.3 0-10.6-2-14.7-6.1L512.7 145.3 151.4 506.6c-8.1 8.1-21.2 8.1-29.3 0-8.1-8.1-8.1-21.2 0-29.3l376-376c3.9-3.9 9.2-6.1 14.7-6.1s10.8 2.2 14.7 6.1l376 376c8.1 8.1 8.1 21.2 0 29.3-4.2 4-9.5 6-14.8 6z" p-id="2391"></path><path d="M514.2 930.6c-11.4 0-20.7-9.2-20.7-20.7l-2.9-788.4c0-11.5 9.2-20.8 20.7-20.8h0.1c11.4 0 20.7 9.2 20.7 20.7l2.9 788.4c0 11.5-9.3 20.8-20.8 20.8 0.1 0 0 0 0 0z" p-id="2392"></path></svg>