<svg xmlns="http://www.w3.org/2000/svg" version="1.1" width="30.231319427490234" height="32"
     viewBox="0 0 30.231319427490234 32"><g><path d="M29.0453,26.1146C28.2855,24.3136,27.192,22.6975,25.8051,21.3106C24.4182,19.9236,22.8021,18.8342,21.0011,18.0704C20.985,18.0623,20.9689,18.0583,20.9528,18.0503C23.4574,16.2412,25.0855,13.2945,25.0855,9.96985C25.0855,4.46231,20.6232,0,15.1157,0C9.60812,0,5.14581,4.46231,5.14581,9.96985C5.14581,13.2945,6.77395,16.2412,9.27847,18.0543C9.26239,18.0623,9.24631,18.0663,9.23023,18.0744C7.42923,18.8342,5.81315,19.9236,4.42621,21.3146C3.03928,22.7015,1.94983,24.3176,1.18601,26.1186C0.438272,27.8794,0.0402826,29.7487,0.0000815847,31.6704C-0.00393876,31.8513,0.140785,32,0.32169,32L2.73375,32C2.91063,32,3.05134,31.8593,3.05536,31.6864C3.13576,28.5829,4.38199,25.6764,6.58501,23.4734C8.8644,21.194,11.8915,19.9397,15.1157,19.9397C18.3398,19.9397,21.3669,21.194,23.6463,23.4734C25.8493,25.6764,27.0956,28.5829,27.176,31.6864C27.18,31.8633,27.3207,32,27.4976,32L29.9096,32C30.0905,32,30.2353,31.8513,30.2312,31.6704C30.191,29.7487,29.793,27.8794,29.0453,26.1146ZM15.1157,16.8844C13.2704,16.8844,11.5338,16.1648,10.2272,14.8583C8.92068,13.5518,8.20109,11.8151,8.20109,9.96985C8.20109,8.12462,8.92068,6.38794,10.2272,5.08141C11.5338,3.77487,13.2704,3.05528,15.1157,3.05528C16.9609,3.05528,18.6976,3.77487,20.0041,5.08141C21.3106,6.38794,22.0302,8.12462,22.0302,9.96985C22.0302,11.8151,21.3106,13.5518,20.0041,14.8583C18.6976,16.1648,16.9609,16.8844,15.1157,16.8844Z" fill-opacity="1"/></g></svg>